REM DIRINDEX 1\2,1\3
REM DIRNAME folder01,folder02,folder03
TITLE ""
FILE "ScrambleS_3Part2_Theme181.mp3" MP3
  TRACK 01 AUDIO
    TITLE "3:cjc080_0949"
    INDEX 01 00:00:00
  TRACK 02 AUDIO
    TITLE "0:"
    INDEX 01 00:02:14
  TRACK 03 AUDIO
    TITLE "2:cjc080_0950"
    INDEX 01 00:03:21
  TRACK 04 AUDIO
    TITLE "0:"
    INDEX 01 00:06:14
  TRACK 05 AUDIO
    TITLE "2:cjc080_0951"
    INDEX 01 00:07:25
  TRACK 06 AUDIO
    TITLE "0:"
    INDEX 01 00:11:40
